/* XPM */
static const char * quit_xpm[] = {
"170 68 2 1",
" 	c None",
".	c #000000",
"              .................                                                                                                   ........................................",
"           .............................                                                                                          ........................................",
"          ...............................          ...................        ................       .................            ........................................",
"         ................................          ....................       ................      ...................           ........................................",
"        ..................................         ...................        ................      ...................          .........................................",
"       ...................................         ...................        .................     ...................          .........................................",
"       ...................................         ...................        .................     ...................          .........................................",
"      .....................................        ...................        .................     ...................          .........................................",
"      .....................................        ...................        .................     ...................          .........................................",
"      .....................................        ...................        .................     ...................          .........................................",
"      .....................................        ...................        .................      ..................          .........................................",
"     ......................................        ...................        .................      ..................          .........................................",
"     .......................................       ...................        .................      ..................          .........................................",
"     .......................................       ...................        .................      ..................          .........................................",
"     .......................................       ...................        ................       ..................          .........................................",
"     .......................................       ...................        ................       ..................          .........................................",
"     .......................................        ...............           ...............        ..................          .........................................",
"     .......................................        ..............            .............          .................           .........................................",
"     .......................................        ..............            ............            ...............            .........................................",
"     .......................................        ..............            ..........               .............             .........................................",
"     ..............        .................         .............            ..........                ............             .........................................",
"     ............            ...............           ...........            ..........                 ..........              .........................................",
"     ...........              ..............           ...........             ........                  ..........              ..........................       ........",
"     ..........                .............           ...........             ........                  ..........              ........     .............        .......",
"     .........                 .............           ..........              ........                  ..........                .....        ..........          ......",
"     .........                  ............           ..........              ........                  ..........                  ...        ..........                ",
"     .........                  ............           ..........              ........                  ..........                             ..........                ",
"     ........                   ...........            ..........              ........                  ..........                             ..........                ",
"     ........                    ..........            ..........              ........                  ..........                             ..........                ",
"     ........                    ..........            ..........              ........                  ..........                             ..........                ",
"     ........                    ..........            ..........              ........                  ..........                             ..........                ",
"     ........                    ..........            ..........              ........                  ..........                             ..........                ",
"     .......                     ..........            ..........              ........                  ..........                             ..........                ",
"     .......                     ..........            ..........              ........                  ..........                             ..........                ",
"     .......                      .........            ..........              ........                  ..........                             ..........                ",
"     .......                      .........            ..........              ........                  ..........                             ..........                ",
"    ........                      .........            ..........              ........                  ..........                             ..........                ",
"    ........                      .........            ..........              ........                  ..........                             ..........                ",
"    ........                      .........            ..........              ........                  ..........                             ..........                ",
"    ........                      .........            ..........              ........                  ..........                             ..........                ",
"    ........                      .........            ..........              ........                  ..........                             ..........                ",
"    ........             .        .........            ..........             .........                  ..........                             ..........                ",
"    .........         .....       .........            ...........            .........                  ..........                             ..........                ",
"    .........        ......       .........            ...........           ..........                 ...........                             ..........                ",
"    .........       ........     .........             ............         ...........                 ...........                             ..........                ",
"    .........       ........     .........             .............       ............                 ...........                             ..........                ",
"    ..........      .........   ..........             ................................                 ............                            ..........                ",
"    ..........      ..........  ..........             ................................              ................                           ..........                ",
"    ...........     ......................             ................................              ..................                         ..........                ",
"    ............     .....................            .................................              ....................                       ..........                ",
"    .............    .....................            .................................              ....................                      ...........                ",
"    ..............   .....................            .................................             .....................                      ...........                ",
"    ......................................            .................................             ......................                     ...............            ",
"    ......................................            .................................             ......................                     ................           ",
"    ......................................            .................................             ......................                  ...................           ",
"    ......................................            .................................             ......................                 ....................           ",
"    ......................................            .................................             ......................                 ....................           ",
"    ......................................            .................................             ......................                 ....................           ",
"    .......................................           .................................             ......................                 ....................           ",
"     ......................................           .................................             ......................                 ....................           ",
"     .......................................          .................................             ......................                 ....................           ",
"     ........................................         .................................             ......................                 ....................           ",
"     ........................................          ...............................              ......................                 ....................           ",
"      ........................................         ...............................              ......................                 ...................            ",
"       ........................................         ............................                ......................                 ...................            ",
"         .......................................          .......................                    .....................                 ...................            ",
"             ...................................            ................                         ......................                ...................            ",
"                               ..................                                                                                                                         "};
