/* XPM */
static const char * score_xpm[] = {
"237 68 2 1",
" 	c None",
".	c #FFFFFF",
"                                                                                                                                                                                                                 .                           ",
"      ..................      ....                   ...............     ....                   .....................                 ..........................                   ................................                          ",
"    ......................    .......            ...................... ........              .............................         ...............................                ................................                          ",
"   ......................... ........           ................................             ...............................        ................................               ................................                          ",
"  ...................................           ................................            ................................        .................................              ................................                          ",
"  ....................................         ..................................          .................................        ..................................             ................................                          ",
" ....................................          .................................          ..................................        ...................................            ................................                          ",
" ....................................          .................................          ..................................        ...................................            ................................                          ",
" ....................................         ..................................         ...................................        ...................................            ................................                          ",
" ....................................         ..................................         ...................................        ....................................           ................................                          ",
".....................................         ..................................        ....................................        ....................................           ................................                          ",
".....................................         ..................................        .....................................      .....................................           ................................                          ",
".....................................        ...................................        .....................................      .....................................           ................................                          ",
".....................................        ...................................        .....................................      .....................................           ................................                          ",
".....................................        ...................................        .....................................      ......................................          ................................                          ",
".....................................        ...................................       ......................................      ......................................          ................................                          ",
".....................................        ...................................       ......................................      ......................................          ................................                          ",
".....................................       ....................................       ......................................      ......................................          ...............................                           ",
".....................................       ....................................       ......................................      ..................     ...............          ...............................                           ",
"..................       ............       ....................................       ...................   ................      .................         ............          ...............................                           ",
".................         ...........       ....................................       .............            .............      .................          ...........          ...............................                           ",
"................          ...........       ....................................       ...........               ............      ................            ..........          ...............................                           ",
"...............           ...........       ....................................       ..........                ............       ...............            ..........          ...............................                           ",
"...............                             ............     ...................       .........                  ...........        ..............            ..........           ................         .....                ...........",
"...............                             ...........       ..................      .........                   ...........         .............           ...........             ............           .....            ...............",
"...............                             ..........        ..................      .........                   ...........          ............           ..........              ............           .....            ...............",
"...............                             .........          .................      .........                    ..........          ............          ...........              ............            ..              ...............",
"...............                             .........          .................      .........                    ..........          ............          ...........              ............                            ...............",
"...............                            ..........                                 .........                    ..........           ............        ............              .............                           ...............",
"...............                            .........                                  .........                    ..........           ............      ..............              ...................                     ...............",
"................                           .........                                  .........                    ..........           .............   ...............               .....................                   ...............",
" ..................                        .........                                  .........                    ..........           ...............................               ......................                  ...............",
" .................................         .........                                  .........                    ..........           ..............................                ......................                  ...............",
" ...................................       .........                                  .........                    ..........           ..............................                ......................                  ...............",
"  ..................................       .........                                  .........                    ..........           .............................                 ......................                  ...............",
"  ..................................       .........                                  .........                    ..........           ............................                  .....................                   ...............",
"   .................................       .........                                  .........                    ..........           ...........................                   .....................                   .............. ",
"       ..............................      .........                                  .........                    ..........           .........................                     .....................                    ............. ",
"                  ...................      .........                                  .........                    ..........           ........................                      .....................                                  ",
"                     ................      .........                                  .........                    ..........           .....................                         .....................                                  ",
"                       ..............      .........                                  .........                    ..........            ....................                         .....................                                  ",
"                       ..............      .........                                  .........                   ..........             .....................                        ......................                                 ",
"   ...........          .............      .........                                  ..........                  ..........             ......................                       ...........                                            ",
"   ...........          .............      ..........                      ..         ..........                  ..........             .........   ...........                      ...........                                            ",
"  ............          .............      ..........              ...........        ...........                ...........             .........    ..........      ......          ...........                                            ",
"  ............          .............      ..........              ...........        ...........               ............             .........     ..........    .......          ...........                                            ",
"  ............          .............      ...........            ............        ............             .............             ........      ..........   ........       ..............           .......                          ",
"  ............          .............      ............           ............        ..............        ................             ........       .........   ........       ..............           .......                          ",
"  ............         ..............      ............          .............        ......................................             ........       .........   ........       ..............          .........                         ",
"  .............       ...............      .............         .............        ......................................             ........       .........   ........       ..............       ............                         ",
"  ..............     ................      ..............      ...............        ......................................            .........       ..........  ........       .................................                         ",
"  ...................................      ...................................         .....................................          ...........        ...................       .................................                         ",
"  ...................................      ...................................         .....................................         .............       ...................       .................................                         ",
"  ...................................      ...................................         .....................................         ................    ...................       .................................              ...........",
"  ..................................       ...................................         ....................................          ................    ...................      ..................................          ...............",
"  ..................................       ...................................         ....................................          ................    ...................      ..................................          ...............",
"  ..................................        ..................................         ....................................          ................    ...................      ..................................          ...............",
"  ..................................        .................................          ....................................          ................    ...................      ..................................          ...............",
"  ..................................        .................................          ....................................          ................    ..................       ..................................          ...............",
"  ..................................        ..................................         ...................................           ................    ..................       ..................................          ...............",
"  .................................          ................................           ..................................           ................     .................       ..................................          ...............",
"  .................................          ...............................            ..................................           ................     .................       .................................           ...............",
"  .................................           .............................             ..................................           ................     ................        .................................           ...............",
"   ...............................             ...........................              .................................            ................     ................        .................................           ...............",
"    ..............................              .........................                ................................            ................      ..............         .................................           ...............",
"     ............................                .......................                   .............................             ................      .............          .................................           ...............",
"      ..........................                   ...................                       ...........................             ................       ...........           ................................            .............. ",
"         .............                                ............                               ...................                 ................        .......              ...............                              ............. "};
