/* XPM */
static const char *aim_xpm[] = {
/* columns rows colors chars-per-pixel */
"128 128 27 1 ",
"  c None",
". c #1a1a1a",
"X c #1B1B1B",
"o c #1c1c1c",
"O c #1D1D1D",
"+ c #1E1E1E",
"@ c #212121",
"# c #202020",
"$ c #212121",
"% c #222222",
"& c #232323",
"* c #242424",
"= c #252525",
"- c #212121",
"; c #272727",
": c #282828",
"> c #212121",
", c #2A2A2A",
"< c #212121",
"1 c #2C2C2C",
"2 c #2D2D2D",
"3 c #212121",
"4 c #2F2F2F",
"5 c #212121",
"6 c #313131",
"7 c #323232",
"8 c #212121",
/* pixels */
"                                                                                                                                ",
"                                                                                                                                ",
"                                                                                                                                ",
"                                                                                                                                ",
"                                                                                                                                ",
"                                                                                                                                ",
"                                                                                                                                ",
"                                                                                                                                ",
"                                                              +33+                                                              ",
"                                                             &8888-                                                             ",
"                                                             888888                                                             ",
"                                                             888888                                                             ",
"                                                             888888                                                             ",
"                                                             888888                                                             ",
"                                                             888888                                                             ",
"                                                             888888                                                             ",
"                                                             888888                                                             ",
"                                                             888888                                                             ",
"                                                            .888888.                                                            ",
"                                                      .&<88888888888888<&.                                                      ",
"                                                   -888888888888888888888888-                                                   ",
"                                                -888888888888888888888888888888-                                                ",
"                                             .888888888888888888888888888888888888.                                             ",
"                                           +8888888888888888888888888888888888888888&                                           ",
"                                         .88888888888888888888888888888888888888888888+                                         ",
"                                        3888888888888888<&   888888  .&<888888888888888<                                        ",
"                                      &8888888888888<+       888888       .-8888888888888&                                      ",
"                                     3888888888883+          888888          .3888888888883                                     ",
"                                    88888888888<             888888             -88888888888                                    ",
"                                  +8888888888-               888888               -8888888888+                                  ",
"                                 &8888888883                 888888                 3888888888&                                 ",
"                                -888888888+                  888888                  +888888888-                                ",
"                               -888888883                    888888                    388888888-                               ",
"                              &88888888-                     <8888<                     -88888888&                              ",
"                             +88888888&                       <88<                       &88888888+                             ",
"                             88888888+                                                    +88888888                             ",
"                            88888888                                                        88888888                            ",
"                           38888888+                                                        .88888883                           ",
"                          &8888888+                                                          &8888888&                          ",
"                          8888888<                                                            <8888888                          ",
"                         <8888883                                                              3888888<                         ",
"                        .8888888                                                                8888888.                        ",
"                        8888888+                                                                +8888888                        ",
"                       +8888883                                                                  3888888+                       ",
"                       8888888                                                                    8888888                       ",
"                      .888888-                                                                    -888888.                      ",
"                      8888888                                                                      8888888                      ",
"                      888888<                                                                      <888888                      ",
"                     -888888                                 +--<&+                                 888888-                     ",
"                     8888883                              <8888888888<                              3888888                     ",
"                     888888.                            <888888888888883                            .888888                     ",
"                    -888888                           .888888888888888888+                           888888-                    ",
"                    888888<                          -88888888888888888888-                          <888888                    ",
"                    888888.                         -8888888888888888888888-                         +888888                    ",
"                   .888888                         +88888888888<<88888888888+                         888888                    ",
"                   &888888                         888888888       .388888888                         888888&                   ",
"                   <88888<                        38888888+          &8888888<                        <88888<                   ",
"                   888888&                        8888888.            .8888888                        &888888                   ",
"                   888888.                       <888888&              &888888<                       .888888                   ",
"                   888888                        8888888                3888888                        888888                   ",
"                  .888888                        888888                 .888888                        888888.                  ",
"         &88888888888888888888888<              +888888                  888888+              <88888888888888888888888&         ",
"        +8888888888888888888888888<             -888888                  888888-             <8888888888888888888888888+        ",
"        388888888888888888888888888             -88888<                  <88888-             888888888888888888888888883        ",
"        388888888888888888888888888             -88888<                  <88888<             888888888888888888888888883        ",
"        +8888888888888888888888888<             -888888                  888888&             <8888888888888888888888888+        ",
"         &88888888888888888888888<              +888888                  888888+              <88888888888888888888888&         ",
"                  .888888                        888888.                .888888                        888888.                  ",
"                   888888                        8888883                3888888                        888888                   ",
"                   888888.                       <888888&              &888888<                       .888888                   ",
"                   888888&                        8888888.            .8888888                        &888888                   ",
"                   <88888<                        38888888&          &8888888<                        <88888<                   ",
"                   -888888                         888888883.      .888888888                         888888&                   ",
"                   .888888                         +88888888888<<38888888888.                         888888                    ",
"                    888888+                         &8888888888888888888888-                         +888888                    ",
"                    888888<                          -88888888888888888888-                          <888888                    ",
"                    &888888                           .888888888888888888+                           888888-                    ",
"                     888888.                            <88888888888888-                            +888888                     ",
"                     8888883                              <8888888888<                              3888888                     ",
"                     -888888                                 +&<--+                                 888888&                     ",
"                      888888<                                                                      -888888                      ",
"                      3888888                                                                      8888888                      ",
"                      +888888-                                                                    -888888.                      ",
"                       8888888                                                                    8888888                       ",
"                       +8888883                                                                  3888888+                       ",
"                        8888888+                                                                +8888888                        ",
"                        .8888888                                                                8888888.                        ",
"                         38888888                                                              38888883                         ",
"                          8888888-                                                            <8888888                          ",
"                          &8888888&                                                          &8888888&                          ",
"                           38888888+                                                        +88888883                           ",
"                            88888888                                                       .88888888                            ",
"                             88888888+                                                    +88888888                             ",
"                             +88888888&                       <88<                       &88888888+                             ",
"                              &88888888<                     <8888<                     -88888888&                              ",
"                               -888888883                    888888                    388888888-                               ",
"                                -888888888+                  888888                  +888888888-                                ",
"                                 &8888888883                 888888                 3888888888&                                 ",
"                                  +8888888888-               888888               -8888888888+                                  ",
"                                    88888888888-             888888             <88888888888                                    ",
"                                     3888888888883+          888888          .3888888888883                                     ",
"                                      &8888888888888<+       888888       .<8888888888888&                                      ",
"                                        3888888888888888<&.  888888  .&<8888888888888883                                        ",
"                                         .88888888888888888888888888888888888888888888+                                         ",
"                                           +8888888888888888888888888888888888888888+                                           ",
"                                             .888888888888888888888888888888888883+                                             ",
"                                                &888888888888888888888888888888-                                                ",
"                                                   -888888888888888888888888-                                                   ",
"                                                      .&<88888888888888<&                                                       ",
"                                                            .888888.                                                            ",
"                                                             888888                                                             ",
"                                                             888888                                                             ",
"                                                             888888                                                             ",
"                                                             888888                                                             ",
"                                                             888888                                                             ",
"                                                             888888                                                             ",
"                                                             888888                                                             ",
"                                                             888888                                                             ",
"                                                             &8888&                                                             ",
"                                                              +33+                                                              ",
"                                                                                                                                ",
"                                                                                                                                ",
"                                                                                                                                ",
"                                                                                                                                ",
"                                                                                                                                ",
"                                                                                                                                ",
"                                                                                                                                ",
"                                                                                                                                "
};
